<svg id="Layer_1" data-name="Layer 1" xmlns="http://www.w3.org/2000/svg" viewBox="0 0 1000 1000"><defs><style>.cls-1{opacity:0.05;}.cls-2{fill:#1a1a1a;}.cls-3{fill:#333;}.cls-4{fill:#666;}.cls-5{fill:#999;}.cls-6{fill:#fff;}</style></defs><title>Base-sheet</title><g id="Grid" class="cls-1"><path d="M98,2V98H2V2H98m2-2H0V100H100V0Z"/><path d="M198,2V98H102V2h96m2-2H100V100H200V0Z"/><path d="M298,2V98H202V2h96m2-2H200V100H300V0Z"/><path d="M398,2V98H302V2h96m2-2H300V100H400V0Z"/><path d="M498,2V98H402V2h96m2-2H400V100H500V0Z"/><path d="M598,2V98H502V2h96m2-2H500V100H600V0Z"/><path d="M698,2V98H602V2h96m2-2H600V100H700V0Z"/><path d="M798,2V98H702V2h96m2-2H700V100H800V0Z"/><path d="M898,2V98H802V2h96m2-2H800V100H900V0Z"/><path d="M998,2V98H902V2h96m2-2H900V100h100V0Z"/><path d="M98,102v96H2V102H98m2-2H0V200H100V100Z"/><path d="M198,102v96H102V102h96m2-2H100V200H200V100Z"/><path d="M298,102v96H202V102h96m2-2H200V200H300V100Z"/><path d="M398,102v96H302V102h96m2-2H300V200H400V100Z"/><path d="M498,102v96H402V102h96m2-2H400V200H500V100Z"/><path d="M598,102v96H502V102h96m2-2H500V200H600V100Z"/><path d="M698,102v96H602V102h96m2-2H600V200H700V100Z"/><path d="M798,102v96H702V102h96m2-2H700V200H800V100Z"/><path d="M898,102v96H802V102h96m2-2H800V200H900V100Z"/><path d="M998,102v96H902V102h96m2-2H900V200h100V100Z"/><path d="M98,202v96H2V202H98m2-2H0V300H100V200Z"/><path d="M198,202v96H102V202h96m2-2H100V300H200V200Z"/><path d="M298,202v96H202V202h96m2-2H200V300H300V200Z"/><path d="M398,202v96H302V202h96m2-2H300V300H400V200Z"/><path d="M498,202v96H402V202h96m2-2H400V300H500V200Z"/><path d="M598,202v96H502V202h96m2-2H500V300H600V200Z"/><path d="M698,202v96H602V202h96m2-2H600V300H700V200Z"/><path d="M798,202v96H702V202h96m2-2H700V300H800V200Z"/><path d="M898,202v96H802V202h96m2-2H800V300H900V200Z"/><path d="M998,202v96H902V202h96m2-2H900V300h100V200Z"/><path d="M98,302v96H2V302H98m2-2H0V400H100V300Z"/><path d="M198,302v96H102V302h96m2-2H100V400H200V300Z"/><path d="M298,302v96H202V302h96m2-2H200V400H300V300Z"/><path d="M398,302v96H302V302h96m2-2H300V400H400V300Z"/><path d="M498,302v96H402V302h96m2-2H400V400H500V300Z"/><path d="M598,302v96H502V302h96m2-2H500V400H600V300Z"/><path d="M698,302v96H602V302h96m2-2H600V400H700V300Z"/><path d="M798,302v96H702V302h96m2-2H700V400H800V300Z"/><path d="M898,302v96H802V302h96m2-2H800V400H900V300Z"/><path d="M998,302v96H902V302h96m2-2H900V400h100V300Z"/><path d="M98,402v96H2V402H98m2-2H0V500H100V400Z"/><path d="M198,402v96H102V402h96m2-2H100V500H200V400Z"/><path d="M298,402v96H202V402h96m2-2H200V500H300V400Z"/><path d="M398,402v96H302V402h96m2-2H300V500H400V400Z"/><path d="M498,402v96H402V402h96m2-2H400V500H500V400Z"/><path d="M598,402v96H502V402h96m2-2H500V500H600V400Z"/><path d="M698,402v96H602V402h96m2-2H600V500H700V400Z"/><path d="M798,402v96H702V402h96m2-2H700V500H800V400Z"/><path d="M898,402v96H802V402h96m2-2H800V500H900V400Z"/><path d="M998,402v96H902V402h96m2-2H900V500h100V400Z"/><path d="M98,502v96H2V502H98m2-2H0V600H100V500Z"/><path d="M198,502v96H102V502h96m2-2H100V600H200V500Z"/><path d="M298,502v96H202V502h96m2-2H200V600H300V500Z"/><path d="M398,502v96H302V502h96m2-2H300V600H400V500Z"/><path d="M498,502v96H402V502h96m2-2H400V600H500V500Z"/><path d="M598,502v96H502V502h96m2-2H500V600H600V500Z"/><path d="M698,502v96H602V502h96m2-2H600V600H700V500Z"/><path d="M798,502v96H702V502h96m2-2H700V600H800V500Z"/><path d="M898,502v96H802V502h96m2-2H800V600H900V500Z"/><path d="M998,502v96H902V502h96m2-2H900V600h100V500Z"/><path d="M98,602v96H2V602H98m2-2H0V700H100V600Z"/><path d="M198,602v96H102V602h96m2-2H100V700H200V600Z"/><path d="M298,602v96H202V602h96m2-2H200V700H300V600Z"/><path d="M398,602v96H302V602h96m2-2H300V700H400V600Z"/><path d="M498,602v96H402V602h96m2-2H400V700H500V600Z"/><path d="M598,602v96H502V602h96m2-2H500V700H600V600Z"/><path d="M698,602v96H602V602h96m2-2H600V700H700V600Z"/><path d="M798,602v96H702V602h96m2-2H700V700H800V600Z"/><path d="M898,602v96H802V602h96m2-2H800V700H900V600Z"/><path d="M998,602v96H902V602h96m2-2H900V700h100V600Z"/><path d="M98,702v96H2V702H98m2-2H0V800H100V700Z"/><path d="M198,702v96H102V702h96m2-2H100V800H200V700Z"/><path d="M298,702v96H202V702h96m2-2H200V800H300V700Z"/><path d="M398,702v96H302V702h96m2-2H300V800H400V700Z"/><path d="M498,702v96H402V702h96m2-2H400V800H500V700Z"/><path d="M598,702v96H502V702h96m2-2H500V800H600V700Z"/><path d="M698,702v96H602V702h96m2-2H600V800H700V700Z"/><path d="M798,702v96H702V702h96m2-2H700V800H800V700Z"/><path d="M898,702v96H802V702h96m2-2H800V800H900V700Z"/><path d="M998,702v96H902V702h96m2-2H900V800h100V700Z"/><path d="M98,802v96H2V802H98m2-2H0V900H100V800Z"/><path d="M198,802v96H102V802h96m2-2H100V900H200V800Z"/><path d="M298,802v96H202V802h96m2-2H200V900H300V800Z"/><path d="M398,802v96H302V802h96m2-2H300V900H400V800Z"/><path d="M498,802v96H402V802h96m2-2H400V900H500V800Z"/><path d="M598,802v96H502V802h96m2-2H500V900H600V800Z"/><path d="M698,802v96H602V802h96m2-2H600V900H700V800Z"/><path d="M798,802v96H702V802h96m2-2H700V900H800V800Z"/><path d="M898,802v96H802V802h96m2-2H800V900H900V800Z"/><path d="M998,802v96H902V802h96m2-2H900V900h100V800Z"/><path d="M98,902v96H2V902H98m2-2H0v100H100V900Z"/><path d="M198,902v96H102V902h96m2-2H100v100H200V900Z"/><path d="M298,902v96H202V902h96m2-2H200v100H300V900Z"/><path d="M398,902v96H302V902h96m2-2H300v100H400V900Z"/><path d="M498,902v96H402V902h96m2-2H400v100H500V900Z"/><path d="M598,902v96H502V902h96m2-2H500v100H600V900Z"/><path d="M698,902v96H602V902h96m2-2H600v100H700V900Z"/><path d="M798,902v96H702V902h96m2-2H700v100H800V900Z"/><path d="M898,902v96H802V902h96m2-2H800v100H900V900Z"/><path d="M998,902v96H902V902h96m2-2H900v100h100V900Z"/></g><path class="cls-2" d="M24.18,59.21l.27-57.32,48.19.22-.27,57.32Z"/><path class="cls-3" d="M64,2.07,63.7,59.39l-30.84-.14.26-57.32ZM24.45,1.89l-.27,57.32,48.19.22.27-57.32Z"/><path class="cls-2" d="M126.18,59.21l.27-57.32,48.19.22-.27,57.32Z"/><path class="cls-3" d="M166,2.07l-.26,57.32-30.84-.14.26-57.32Zm-39.51-.18-.27,57.32,48.19.22.27-57.32Z"/><path class="cls-2" d="M126.12,197.89l.26-57.32,48.19.22-.26,57.32Z"/><path class="cls-3" d="M165.9,140.75l-.27,57.32-30.84-.14.27-57.32Zm-39.52-.18-.26,57.32,48.19.22.26-57.32Z"/><path class="cls-2" d="M26.12,197.89l.26-57.32,48.2.22-.27,57.32Z"/><path class="cls-3" d="M65.9,140.75l-.26,57.32-30.85-.14.27-57.32Zm-39.52-.18-.26,57.32,48.19.22.27-57.32Z"/><path class="cls-3" d="M34,99.5"/><g id="The_tang" data-name="The tang"><polygon class="cls-3" points="183 148.16 99.5 196.36 16 148.16 16 51.74 99.5 3.53 183 51.74 183 148.16"/><polygon class="cls-4" points="165.27 139.73 98.46 178.31 31.65 139.73 31.65 62.59 98.46 24.02 165.27 62.59 165.27 139.73"/><path class="cls-5" d="M141.13,125.64l-41.38,23.9a1.41,1.41,0,0,1-1.38,0L57,125.64a1.35,1.35,0,0,1-.69-1.18V76.67A1.36,1.36,0,0,1,57,75.48l41.38-23.9a1.41,1.41,0,0,1,1.38,0l41.38,23.9a1.36,1.36,0,0,1,.69,1.19v47.79A1.35,1.35,0,0,1,141.13,125.64Z"/><g id="Tje_tjomg" data-name="Tje tjomg"><path class="cls-3" d="M101.47,35.18q-1.2,8.12-2.41,16.22l43.17,25.18a85.4,85.4,0,0,0-7-12.28A90.18,90.18,0,0,0,101.47,35.18Z"/><path class="cls-3" d="M42.5,66.25,55.89,76.58,99.06,51.4a91.74,91.74,0,0,0-14.44.22A96.16,96.16,0,0,0,42.5,66.25Z"/><path class="cls-3" d="M156.68,68.21l-14.45,8.37v48a101.53,101.53,0,0,0,6.36-12.49A105.17,105.17,0,0,0,156.68,68.21Z"/><path class="cls-3" d="M155.31,134.16l-13.08-9.62L99.06,149.73a83,83,0,0,0,14.47,0A86.86,86.86,0,0,0,155.31,134.16Z"/><path class="cls-3" d="M96.29,166.38q1.38-8.32,2.77-16.65l-42-24a66.09,66.09,0,0,0,5.4,11.56C72.52,154.26,87.82,162.63,96.29,166.38Z"/><path class="cls-3" d="M41.63,133.25l15.46-7.51-1.2-49.16a110.52,110.52,0,0,0-6.13,12.83A115.11,115.11,0,0,0,41.63,133.25Z"/><path class="cls-4" d="M178.94,55.37,160,57Q131.18,40.17,102.35,23.3c-1.13-1.59,5.05-.43,14.73,2.67C133.81,31.34,161,42.51,178.94,55.37Z"/><path class="cls-4" d="M178.63,146.05l-11-15.53q0-33.39.1-66.78c.8-1.78,2.91,4.14,5.11,14.07C176.65,95,180.69,124.07,178.63,146.05Z"/><path class="cls-4" d="M99.38,192.1l8.11-17.2,58.19-32.79c1.94-.17-2.18,4.58-9.74,11.38C142.88,165.23,119.53,183.08,99.38,192.1Z"/><path class="cls-4" d="M19.22,147.55l18.93-1.85,58,33.17c1.15,1.58-5,.48-14.76-2.53C64.58,171.14,37.3,160.24,19.22,147.55Z"/><path class="cls-4" d="M18,57.41q5.63,7.67,11.27,15.32.55,33.39,1.12,66.78c-.77,1.79-3-4.09-5.37-14C20.89,108.45,16.32,79.43,18,57.41Z"/><path class="cls-4" d="M97.07,8.16,89.18,25.47,31.43,59c-1.94.2,2.11-4.61,9.58-11.5C53.92,35.59,77,17.45,97.07,8.16Z"/><path class="cls-6" d="M121.18,83.28V88c0,4.31-9.78,7.8-21.85,7.8S77.47,92.27,77.47,88V83.28c0-4.31,9.79-7.81,21.86-7.81S121.18,79,121.18,83.28Zm-5.34,13.14a20.29,20.29,0,0,0,5.34-2.79v9.94c0,4.31-9.78,7.81-21.85,7.81s-21.86-3.5-21.86-7.81V93.63a19.1,19.1,0,0,0,5.36,2.79,50.84,50.84,0,0,0,16.5,2.47,51,51,0,0,0,16.51-2.47ZM82.83,112a50.84,50.84,0,0,0,16.5,2.47A51,51,0,0,0,115.84,112a20.29,20.29,0,0,0,5.34-2.79v8.38c0,4.31-9.78,7.8-21.85,7.8s-21.86-3.49-21.86-7.8v-8.38A19.1,19.1,0,0,0,82.83,112Z"/></g></g></svg>